<?xml version="1.0" encoding="UTF-8"?>
<!DOCTYPE svg PUBLIC "-//W3C//DTD SVG 1.1//EN" "http://www.w3.org/Graphics/SVG/1.1/DTD/svg11.dtd">
<!-- Creator: CorelDRAW 2021.5 -->
<svg xmlns="http://www.w3.org/2000/svg" xml:space="preserve" width="8.5in" height="11in" version="1.1" style="shape-rendering:geometricPrecision; text-rendering:geometricPrecision; image-rendering:optimizeQuality; fill-rule:evenodd; clip-rule:evenodd"
viewBox="0 0 8500 11000"
 xmlns:xlink="http://www.w3.org/1999/xlink"
 xmlns:xodm="http://www.corel.com/coreldraw/odm/2003">
 <defs>
  <style type="text/css">
   <![CDATA[
    .str1 {stroke:#FEFEFE;stroke-width:6.94;stroke-miterlimit:2.61313}
    .str0 {stroke:#092E20;stroke-width:6.94;stroke-miterlimit:2.61313}
    .fil0 {fill:#092E20}
    .fil1 {fill:#FEFEFE;fill-rule:nonzero}
   ]]>
  </style>
 </defs>
 <g id="Layer_x0020_1">
  <metadata id="CorelCorpID_0Corel-Layer"/>
  <circle class="fil0 str0" cx="4339.71" cy="5195.6" r="3209.34"/>
  <path class="fil1 str1" d="M3140.8 3370.96l594.77 0 0 2752.96c-305.11,57.93 -529.12,81.1 -772.41,81.1 -726.09,-0.02 -1104.57,-328.24 -1104.57,-957.79 0,-606.35 401.67,-1000.24 1023.44,-1000.24 96.55,0 169.92,7.7 258.77,30.87l-0.01 -906.9zm0 1385.74c-69.51,-23.14 -127.43,-30.87 -200.81,-30.87 -301.24,0 -475.04,185.4 -475.04,509.78 0,316.71 166.08,490.5 471.18,490.5 65.63,0 119.71,-3.86 204.68,-15.42l-0.01 -953.98zm1540.93 -467.26l0 1378.72c0,475.05 -34.76,702.89 -139.03,899.87 -96.57,189.27 -224.02,308.96 -486.63,440.28l-552.28 -262.63c262.63,-123.57 390.06,-231.69 471.15,-397.81 84.98,-169.92 112.04,-366.89 112.04,-884.39l0 -1174.04 594.74 0zm-594.74 -915.31l594.74 0 0 610.21 -594.74 0 0 -610.21zm1645.47 2682.3l0 -642.03 -647.64 0 0 -441.83 647.64 0 0 -642.03 430.61 0 0 642.03 647.63 0 0 441.83 -647.63 0 0 642.03 -430.61 0z"/>
 </g>
</svg>
